<mxfile host="app.diagrams.net" agent="Mozilla/5.0 (Windows NT 10.0; Win64; x64) AppleWebKit/537.36 (KHTML, like Gecko) Chrome/131.0.0.0 Safari/537.36 Edg/131.0.0.0" version="25.0.3">
  <diagram name="Trang-1" id="kJp3BMMSiMSOoha9Jo-O">
    <mxGraphModel dx="1042" dy="565" grid="1" gridSize="10" guides="1" tooltips="1" connect="1" arrows="1" fold="1" page="1" pageScale="1" pageWidth="827" pageHeight="1169" math="0" shadow="0">
      <root>
        <mxCell id="0" />
        <mxCell id="1" parent="0" />
        <mxCell id="LK2__w3aRMqXtA5UZAof-4" style="edgeStyle=orthogonalEdgeStyle;rounded=0;orthogonalLoop=1;jettySize=auto;html=1;entryX=0.5;entryY=0;entryDx=0;entryDy=0;" edge="1" parent="1" source="LK2__w3aRMqXtA5UZAof-1" target="LK2__w3aRMqXtA5UZAof-3">
          <mxGeometry relative="1" as="geometry" />
        </mxCell>
        <mxCell id="LK2__w3aRMqXtA5UZAof-1" value="Start" style="strokeWidth=2;html=1;shape=mxgraph.flowchart.start_1;whiteSpace=wrap;" vertex="1" parent="1">
          <mxGeometry x="340" y="70" width="100" height="60" as="geometry" />
        </mxCell>
        <mxCell id="LK2__w3aRMqXtA5UZAof-2" value="End" style="strokeWidth=2;html=1;shape=mxgraph.flowchart.start_1;whiteSpace=wrap;" vertex="1" parent="1">
          <mxGeometry x="340" y="360" width="100" height="60" as="geometry" />
        </mxCell>
        <mxCell id="LK2__w3aRMqXtA5UZAof-6" value="" style="edgeStyle=orthogonalEdgeStyle;rounded=0;orthogonalLoop=1;jettySize=auto;html=1;" edge="1" parent="1" source="LK2__w3aRMqXtA5UZAof-3" target="LK2__w3aRMqXtA5UZAof-5">
          <mxGeometry relative="1" as="geometry" />
        </mxCell>
        <mxCell id="LK2__w3aRMqXtA5UZAof-3" value="Input N" style="rounded=1;whiteSpace=wrap;html=1;absoluteArcSize=1;arcSize=14;strokeWidth=2;" vertex="1" parent="1">
          <mxGeometry x="340" y="160" width="100" height="40" as="geometry" />
        </mxCell>
        <mxCell id="LK2__w3aRMqXtA5UZAof-10" value="" style="edgeStyle=orthogonalEdgeStyle;rounded=0;orthogonalLoop=1;jettySize=auto;html=1;" edge="1" parent="1" source="LK2__w3aRMqXtA5UZAof-5" target="LK2__w3aRMqXtA5UZAof-9">
          <mxGeometry relative="1" as="geometry" />
        </mxCell>
        <mxCell id="LK2__w3aRMqXtA5UZAof-12" value="" style="edgeStyle=orthogonalEdgeStyle;rounded=0;orthogonalLoop=1;jettySize=auto;html=1;" edge="1" parent="1" source="LK2__w3aRMqXtA5UZAof-5" target="LK2__w3aRMqXtA5UZAof-11">
          <mxGeometry relative="1" as="geometry" />
        </mxCell>
        <mxCell id="LK2__w3aRMqXtA5UZAof-5" value="If N mod 2&amp;nbsp;" style="strokeWidth=2;html=1;shape=mxgraph.flowchart.decision;whiteSpace=wrap;" vertex="1" parent="1">
          <mxGeometry x="340" y="230" width="100" height="60" as="geometry" />
        </mxCell>
        <mxCell id="LK2__w3aRMqXtA5UZAof-7" value="True" style="text;html=1;align=center;verticalAlign=middle;whiteSpace=wrap;rounded=0;" vertex="1" parent="1">
          <mxGeometry x="270" y="220" width="60" height="30" as="geometry" />
        </mxCell>
        <mxCell id="LK2__w3aRMqXtA5UZAof-8" value="False" style="text;html=1;align=center;verticalAlign=middle;whiteSpace=wrap;rounded=0;" vertex="1" parent="1">
          <mxGeometry x="470" y="220" width="60" height="30" as="geometry" />
        </mxCell>
        <mxCell id="LK2__w3aRMqXtA5UZAof-9" value="Printf(N là số chẵn)&lt;div&gt;&lt;br&gt;&lt;/div&gt;" style="rounded=1;whiteSpace=wrap;html=1;absoluteArcSize=1;arcSize=14;strokeWidth=2;" vertex="1" parent="1">
          <mxGeometry x="160" y="240" width="100" height="40" as="geometry" />
        </mxCell>
        <mxCell id="LK2__w3aRMqXtA5UZAof-11" value="Printf(N là số lẻ)" style="rounded=1;whiteSpace=wrap;html=1;absoluteArcSize=1;arcSize=14;strokeWidth=2;" vertex="1" parent="1">
          <mxGeometry x="520" y="240" width="100" height="40" as="geometry" />
        </mxCell>
        <mxCell id="LK2__w3aRMqXtA5UZAof-13" style="edgeStyle=orthogonalEdgeStyle;rounded=0;orthogonalLoop=1;jettySize=auto;html=1;entryX=1;entryY=0.5;entryDx=0;entryDy=0;entryPerimeter=0;" edge="1" parent="1" source="LK2__w3aRMqXtA5UZAof-11" target="LK2__w3aRMqXtA5UZAof-2">
          <mxGeometry relative="1" as="geometry">
            <Array as="points">
              <mxPoint x="570" y="390" />
            </Array>
          </mxGeometry>
        </mxCell>
        <mxCell id="LK2__w3aRMqXtA5UZAof-14" style="edgeStyle=orthogonalEdgeStyle;rounded=0;orthogonalLoop=1;jettySize=auto;html=1;entryX=0;entryY=0.667;entryDx=0;entryDy=0;entryPerimeter=0;" edge="1" parent="1" source="LK2__w3aRMqXtA5UZAof-9" target="LK2__w3aRMqXtA5UZAof-2">
          <mxGeometry relative="1" as="geometry">
            <Array as="points">
              <mxPoint x="210" y="400" />
            </Array>
          </mxGeometry>
        </mxCell>
      </root>
    </mxGraphModel>
  </diagram>
</mxfile>
